<?xml version="1.0" standalone="no"?><!-- Generator: Adobe Fireworks CS6, Export SVG Extension by Aaron Beall (http://fireworks.abeall.com) . Version: 0.6.1  --><!DOCTYPE svg PUBLIC "-//W3C//DTD SVG 1.1//EN" "http://www.w3.org/Graphics/SVG/1.1/DTD/svg11.dtd"><svg id="Untitled-Page%201" viewBox="0 0 212 125" style="background-color:#ffffff00" version="1.1"	xmlns="http://www.w3.org/2000/svg" xmlns:xlink="http://www.w3.org/1999/xlink" xml:space="preserve"	x="0px" y="0px" width="212px" height="125px">	<g>		<path d="M 9.7404 116.0714 L 9.7404 95.9821 L 29.8874 95.9821 L 29.8874 116.0714 L 9.7404 116.0714 L 9.7404 116.0714 ZM 34.2182 116.0714 L 34.2182 95.9821 L 56.9748 95.9821 L 56.9748 116.0714 L 34.2182 116.0714 L 34.2182 116.0714 ZM 9.7404 91.5179 L 9.7404 69.1964 L 29.8874 69.1964 L 29.8874 91.5179 L 9.7404 91.5179 L 9.7404 91.5179 ZM 34.2182 91.5179 L 34.2182 69.1964 L 56.9748 69.1964 L 56.9748 91.5179 L 34.2182 91.5179 L 34.2182 91.5179 ZM 9.7404 64.7321 L 9.7404 44.6429 L 29.8874 44.6429 L 29.8874 64.7321 L 9.7404 64.7321 L 9.7404 64.7321 ZM 61.3056 116.0714 L 61.3056 95.9821 L 84.0622 95.9821 L 84.0622 116.0714 L 61.3056 116.0714 L 61.3056 116.0714 ZM 34.2182 64.7321 L 34.2182 44.6429 L 56.9748 44.6429 L 56.9748 64.7321 L 34.2182 64.7321 L 34.2182 64.7321 ZM 88.393 116.0714 L 88.393 95.9821 L 109.2596 95.9821 L 109.2596 116.0714 L 88.393 116.0714 L 88.393 116.0714 ZM 61.3056 91.5179 L 61.3056 69.1964 L 84.0622 69.1964 L 84.0622 91.5179 L 61.3056 91.5179 L 61.3056 91.5179 ZM 36.8167 31.25 C 36.8167 32.4358 35.5987 33.4821 34.2182 33.4821 L 29.8874 33.4821 C 28.8416 33.4821 27.9188 32.4358 27.9188 31.25 L 27.9188 11.1607 C 27.9188 9.9749 28.8416 8.9286 29.8874 8.9286 L 34.2182 8.9286 C 35.5987 8.9286 36.8167 9.9749 36.8167 11.1607 L 36.8167 31.25 L 36.8167 31.25 ZM 88.393 91.5179 L 88.393 69.1964 L 109.2596 69.1964 L 109.2596 91.5179 L 88.393 91.5179 L 88.393 91.5179 ZM 61.3056 64.7321 L 61.3056 44.6429 L 84.0622 44.6429 L 84.0622 64.7321 L 61.3056 64.7321 L 61.3056 64.7321 ZM 88.393 64.7321 L 88.393 44.6429 L 109.2596 44.6429 L 109.2596 64.7321 L 88.393 64.7321 L 88.393 64.7321 ZM 90.9915 31.25 C 90.9915 32.4358 89.7735 33.4821 88.393 33.4821 L 84.0622 33.4821 C 82.6817 33.4821 81.4637 32.4358 81.4637 31.25 L 81.4637 11.1607 C 81.4637 9.9749 82.6817 8.9286 84.0622 8.9286 L 88.393 8.9286 C 89.7735 8.9286 90.9915 9.9749 90.9915 11.1607 L 90.9915 31.25 L 90.9915 31.25 ZM 118 26.7857 C 118 21.9029 114.0395 17.8571 109.2596 17.8571 L 99.7319 17.8571 L 99.7319 11.1607 C 99.7319 5.0223 94.8154 0 88.393 0 L 84.0622 0 C 77.6397 0 72.7233 5.0223 72.7233 11.1607 L 72.7233 17.8571 L 45.5571 17.8571 L 45.5571 11.1607 C 45.5571 5.0223 40.6407 0 34.2182 0 L 29.8874 0 C 24.0949 0 19.1784 5.0223 19.1784 11.1607 L 19.1784 17.8571 L 9.7404 17.8571 C 4.9605 17.8571 1 21.9029 1 26.7857 L 1 116.0714 C 1 120.9543 4.9605 125 9.7404 125 L 109.2596 125 C 114.0395 125 118 120.9543 118 116.0714 L 118 26.7857 L 118 26.7857 Z" fill="#212121"/>	</g></svg>